<svg width="204" height="237" viewBox="0 0 204 237" fill="none" xmlns="http://www.w3.org/2000/svg">
<path d="M101.422 0L203.925 59.0733V176.766L101.422 117.692L101.422 0Z" fill="#D2714E"/>
<path d="M0 59.0734L101.925 0.227234L101.925 117.92L2.59282e-06 176.766L0 59.0734Z" fill="#A45848"/>
<path d="M153.191 88.3657L51.2665 29.5196L102 0.0631104L203.925 58.9093L153.191 88.3657Z" fill="#F39649"/>
<path d="M0.0756862 59.1173L102 118.346V236.083L0.0756836 176.81L0.0756862 59.1173Z" fill="#F39649"/>
<path fill-rule="evenodd" clip-rule="evenodd" d="M93 185.875L64.6876 169.529L64.6876 202.221L93 218.567L93 185.875ZM84.0953 191.016L73.5923 184.952L73.5923 197.08L84.0953 203.144L84.0953 191.016Z" fill="white"/>
<path d="M7.84625 140.151L31.3847 154.209V162.709L7.84625 148.651V140.151Z" fill="#A45848"/>
<path d="M7.84625 153.882L19.9424 161.074V167.286L7.84625 160.093V153.882Z" fill="#A45848"/>
<path d="M102 118.346L203.925 59.0734V176.766L102 236.039L102 118.346Z" fill="#D2714E"/>
<path d="M101.691 118.366L0.0756226 59.2056L51.2665 29.5196L153.191 88.3657L101.691 118.366Z" fill="#FEB96B"/>
</svg>
