<svg width="896" height="416" viewBox="0 0 896 416" fill="none" xmlns="http://www.w3.org/2000/svg">
<g clip-path="url(#clip0_66_34)" filter="url(#filter0_d_66_34)">
<path d="M5 25C5 12.2975 15.2975 2 28 2H215C227.703 2 238 12.2975 238 25V192C238 204.703 227.703 215 215 215H28C15.2975 215 5 204.703 5 192V25Z" fill="#DA7DA3" stroke="#F1F5F9" stroke-width="2"/>
<path d="M66.2781 143V103.8H53.6781V93.4H66.2781V84.2C66.2781 80.8 67.2781 78.1 69.2781 76.1C71.3448 74.0333 74.0115 73 77.2781 73H90.2781V83.4H81.6781C79.8115 83.4 78.8781 84.4 78.8781 86.4V93.4H91.8781V103.8H78.8781V143H66.2781ZM101.633 143V93.4H114.033V99H115.833C116.566 97 117.766 95.5333 119.433 94.6C121.166 93.6667 123.166 93.2 125.433 93.2H131.433V104.4H125.233C122.033 104.4 119.399 105.267 117.333 107C115.266 108.667 114.233 111.267 114.233 114.8V143H101.633ZM155.509 144.4C151.976 144.4 148.809 143.8 146.009 142.6C143.209 141.333 140.976 139.533 139.309 137.2C137.709 134.8 136.909 131.9 136.909 128.5C136.909 125.1 137.709 122.267 139.309 120C140.976 117.667 143.243 115.933 146.109 114.8C149.043 113.6 152.376 113 156.109 113H169.709V110.2C169.709 107.867 168.976 105.967 167.509 104.5C166.043 102.967 163.709 102.2 160.509 102.2C157.376 102.2 155.043 102.933 153.509 104.4C151.976 105.8 150.976 107.633 150.509 109.9L138.909 106C139.709 103.467 140.976 101.167 142.709 99.1C144.509 96.9667 146.876 95.2667 149.809 94C152.809 92.6667 156.443 92 160.709 92C167.243 92 172.409 93.6333 176.209 96.9C180.009 100.167 181.909 104.9 181.909 111.1V129.6C181.909 131.6 182.843 132.6 184.709 132.6H188.709V143H180.309C177.843 143 175.809 142.4 174.209 141.2C172.609 140 171.809 138.4 171.809 136.4V136.3H169.909C169.643 137.1 169.043 138.167 168.109 139.5C167.176 140.767 165.709 141.9 163.709 142.9C161.709 143.9 158.976 144.4 155.509 144.4ZM157.709 134.2C161.243 134.2 164.109 133.233 166.309 131.3C168.576 129.3 169.709 126.667 169.709 123.4V122.4H157.009C154.676 122.4 152.843 122.9 151.509 123.9C150.176 124.9 149.509 126.3 149.509 128.1C149.509 129.9 150.209 131.367 151.609 132.5C153.009 133.633 155.043 134.2 157.709 134.2Z" fill="white"/>
</g>
<g filter="url(#filter1_d_66_34)">
<path d="M215 190C215 176.745 225.745 166 239 166H429C442.255 166 453 176.745 453 190V357C453 370.255 442.255 381 429 381H239C225.745 381 215 370.255 215 357V190Z" fill="#F45A4E"/>
<path d="M216 190C216 177.297 226.297 167 239 167H429C441.703 167 452 177.297 452 190V357C452 369.703 441.703 380 429 380H239C226.297 380 216 369.703 216 357V190Z" stroke="#F1F5F9" stroke-width="2"/>
</g>
<rect x="441" y="1.93481" width="236" height="213" rx="23" fill="#FC97DB" stroke="#F1F5F9" stroke-width="2"/>
<path d="M504.011 139.8C500.145 139.8 496.745 138.933 493.811 137.2C490.945 135.4 488.711 132.933 487.111 129.8C485.511 126.667 484.711 123.067 484.711 119V89.4H497.311V118C497.311 121.733 498.211 124.533 500.011 126.4C501.878 128.267 504.511 129.2 507.911 129.2C511.778 129.2 514.778 127.933 516.911 125.4C519.045 122.8 520.111 119.2 520.111 114.6V89.4H532.711V139H520.311V132.5H518.511C517.711 134.167 516.211 135.8 514.011 137.4C511.811 139 508.478 139.8 504.011 139.8ZM569.332 140.4C564.399 140.4 560.032 139.367 556.232 137.3C552.499 135.167 549.566 132.2 547.432 128.4C545.366 124.533 544.332 120 544.332 114.8V113.6C544.332 108.4 545.366 103.9 547.432 100.1C549.499 96.2333 552.399 93.2667 556.132 91.2C559.866 89.0667 564.199 88 569.132 88C573.999 88 578.232 89.1 581.832 91.3C585.432 93.4333 588.232 96.4333 590.232 100.3C592.232 104.1 593.232 108.533 593.232 113.6V117.9H557.132C557.266 121.3 558.532 124.067 560.932 126.2C563.332 128.333 566.266 129.4 569.732 129.4C573.266 129.4 575.866 128.633 577.532 127.1C579.199 125.567 580.466 123.867 581.332 122L591.632 127.4C590.699 129.133 589.332 131.033 587.532 133.1C585.799 135.1 583.466 136.833 580.532 138.3C577.599 139.7 573.866 140.4 569.332 140.4ZM557.232 108.5H580.432C580.166 105.633 578.999 103.333 576.932 101.6C574.932 99.8667 572.299 99 569.032 99C565.632 99 562.932 99.8667 560.932 101.6C558.932 103.333 557.699 105.633 557.232 108.5ZM625.047 140.4C618.581 140.4 613.281 139 609.147 136.2C605.014 133.4 602.514 129.4 601.647 124.2L613.247 121.2C613.714 123.533 614.481 125.367 615.547 126.7C616.681 128.033 618.047 129 619.647 129.6C621.314 130.133 623.114 130.4 625.047 130.4C627.981 130.4 630.147 129.9 631.547 128.9C632.947 127.833 633.647 126.533 633.647 125C633.647 123.467 632.981 122.3 631.647 121.5C630.314 120.633 628.181 119.933 625.247 119.4L622.447 118.9C618.981 118.233 615.814 117.333 612.947 116.2C610.081 115 607.781 113.367 606.047 111.3C604.314 109.233 603.447 106.567 603.447 103.3C603.447 98.3667 605.247 94.6 608.847 92C612.447 89.3333 617.181 88 623.047 88C628.581 88 633.181 89.2333 636.847 91.7C640.514 94.1667 642.914 97.4 644.047 101.4L632.347 105C631.814 102.467 630.714 100.667 629.047 99.6C627.447 98.5333 625.447 98 623.047 98C620.647 98 618.814 98.4333 617.547 99.3C616.281 100.1 615.647 101.233 615.647 102.7C615.647 104.3 616.314 105.5 617.647 106.3C618.981 107.033 620.781 107.6 623.047 108L625.847 108.5C629.581 109.167 632.947 110.067 635.947 111.2C639.014 112.267 641.414 113.833 643.147 115.9C644.947 117.9 645.847 120.633 645.847 124.1C645.847 129.3 643.947 133.333 640.147 136.2C636.414 139 631.381 140.4 625.047 140.4Z" fill="white"/>
<g filter="url(#filter2_d_66_34)">
<path d="M654 217C654 203.745 664.745 193 678 193H868C881.255 193 892 203.745 892 217V384C892 397.255 881.255 408 868 408H678C664.745 408 654 397.255 654 384V217Z" fill="#32BF8B"/>
<path d="M655 217C655 204.297 665.297 194 678 194H868C880.703 194 891 204.297 891 217V384C891 396.703 880.703 407 868 407H678C665.297 407 655 396.703 655 384V217Z" stroke="#F1F5F9" stroke-width="2"/>
</g>
<path d="M768.494 336.4C764.96 336.4 761.794 335.8 758.994 334.6C756.194 333.333 753.96 331.533 752.294 329.2C750.694 326.8 749.894 323.9 749.894 320.5C749.894 317.1 750.694 314.267 752.294 312C753.96 309.667 756.227 307.933 759.094 306.8C762.027 305.6 765.36 305 769.094 305H782.694V302.2C782.694 299.867 781.96 297.967 780.494 296.5C779.027 294.967 776.694 294.2 773.494 294.2C770.36 294.2 768.027 294.933 766.494 296.4C764.96 297.8 763.96 299.633 763.494 301.9L751.894 298C752.694 295.467 753.96 293.167 755.694 291.1C757.494 288.967 759.86 287.267 762.794 286C765.794 284.667 769.427 284 773.694 284C780.227 284 785.394 285.633 789.194 288.9C792.994 292.167 794.894 296.9 794.894 303.1V321.6C794.894 323.6 795.827 324.6 797.694 324.6H801.694V335H793.294C790.827 335 788.794 334.4 787.194 333.2C785.594 332 784.794 330.4 784.794 328.4V328.3H782.894C782.627 329.1 782.027 330.167 781.094 331.5C780.16 332.767 778.694 333.9 776.694 334.9C774.694 335.9 771.96 336.4 768.494 336.4ZM770.694 326.2C774.227 326.2 777.094 325.233 779.294 323.3C781.56 321.3 782.694 318.667 782.694 315.4V314.4H769.994C767.66 314.4 765.827 314.9 764.494 315.9C763.16 316.9 762.494 318.3 762.494 320.1C762.494 321.9 763.194 323.367 764.594 324.5C765.994 325.633 768.027 326.2 770.694 326.2Z" fill="white"/>
<path d="M266.391 308V258.4H278.791V263.8H280.591C281.457 262.133 282.891 260.7 284.891 259.5C286.891 258.233 289.524 257.6 292.791 257.6C296.324 257.6 299.157 258.3 301.291 259.7C303.424 261.033 305.057 262.8 306.191 265H307.991C309.124 262.867 310.724 261.1 312.791 259.7C314.857 258.3 317.791 257.6 321.591 257.6C324.657 257.6 327.424 258.267 329.891 259.6C332.424 260.867 334.424 262.833 335.891 265.5C337.424 268.1 338.191 271.4 338.191 275.4V308H325.591V276.3C325.591 273.567 324.891 271.533 323.491 270.2C322.091 268.8 320.124 268.1 317.591 268.1C314.724 268.1 312.491 269.033 310.891 270.9C309.357 272.7 308.591 275.3 308.591 278.7V308H295.991V276.3C295.991 273.567 295.291 271.533 293.891 270.2C292.491 268.8 290.524 268.1 287.991 268.1C285.124 268.1 282.891 269.033 281.291 270.9C279.757 272.7 278.991 275.3 278.991 278.7V308H266.391ZM381.64 309.4C377.173 309.4 373.74 308.633 371.34 307.1C368.94 305.567 367.173 303.867 366.04 302H364.24V308H351.84V238H364.44V264.1H366.24C366.973 262.9 367.94 261.767 369.14 260.7C370.407 259.633 372.04 258.767 374.04 258.1C376.107 257.367 378.64 257 381.64 257C385.64 257 389.34 258 392.74 260C396.14 261.933 398.873 264.8 400.94 268.6C403.007 272.4 404.04 277 404.04 282.4V284C404.04 289.4 403.007 294 400.94 297.8C398.873 301.6 396.14 304.5 392.74 306.5C389.34 308.433 385.64 309.4 381.64 309.4ZM377.84 298.4C381.707 298.4 384.94 297.167 387.54 294.7C390.14 292.167 391.44 288.5 391.44 283.7V282.7C391.44 277.9 390.14 274.267 387.54 271.8C385.007 269.267 381.773 268 377.84 268C373.973 268 370.74 269.267 368.14 271.8C365.54 274.267 364.24 277.9 364.24 282.7V283.7C364.24 288.5 365.54 292.167 368.14 294.7C370.74 297.167 373.973 298.4 377.84 298.4Z" fill="white"/>
<defs>
<filter id="filter0_d_66_34" x="0" y="1" width="243" height="223" filterUnits="userSpaceOnUse" color-interpolation-filters="sRGB">
<feFlood flood-opacity="0" result="BackgroundImageFix"/>
<feColorMatrix in="SourceAlpha" type="matrix" values="0 0 0 0 0 0 0 0 0 0 0 0 0 0 0 0 0 0 127 0" result="hardAlpha"/>
<feOffset dy="4"/>
<feGaussianBlur stdDeviation="2"/>
<feComposite in2="hardAlpha" operator="out"/>
<feColorMatrix type="matrix" values="0 0 0 0 0 0 0 0 0 0 0 0 0 0 0 0 0 0 0.25 0"/>
<feBlend mode="normal" in2="BackgroundImageFix" result="effect1_dropShadow_66_34"/>
<feBlend mode="normal" in="SourceGraphic" in2="effect1_dropShadow_66_34" result="shape"/>
</filter>
<filter id="filter1_d_66_34" x="211" y="166" width="246" height="223" filterUnits="userSpaceOnUse" color-interpolation-filters="sRGB">
<feFlood flood-opacity="0" result="BackgroundImageFix"/>
<feColorMatrix in="SourceAlpha" type="matrix" values="0 0 0 0 0 0 0 0 0 0 0 0 0 0 0 0 0 0 127 0" result="hardAlpha"/>
<feOffset dy="4"/>
<feGaussianBlur stdDeviation="2"/>
<feComposite in2="hardAlpha" operator="out"/>
<feColorMatrix type="matrix" values="0 0 0 0 0 0 0 0 0 0 0 0 0 0 0 0 0 0 0.25 0"/>
<feBlend mode="normal" in2="BackgroundImageFix" result="effect1_dropShadow_66_34"/>
<feBlend mode="normal" in="SourceGraphic" in2="effect1_dropShadow_66_34" result="shape"/>
</filter>
<filter id="filter2_d_66_34" x="650" y="193" width="246" height="223" filterUnits="userSpaceOnUse" color-interpolation-filters="sRGB">
<feFlood flood-opacity="0" result="BackgroundImageFix"/>
<feColorMatrix in="SourceAlpha" type="matrix" values="0 0 0 0 0 0 0 0 0 0 0 0 0 0 0 0 0 0 127 0" result="hardAlpha"/>
<feOffset dy="4"/>
<feGaussianBlur stdDeviation="2"/>
<feComposite in2="hardAlpha" operator="out"/>
<feColorMatrix type="matrix" values="0 0 0 0 0 0 0 0 0 0 0 0 0 0 0 0 0 0 0.25 0"/>
<feBlend mode="normal" in2="BackgroundImageFix" result="effect1_dropShadow_66_34"/>
<feBlend mode="normal" in="SourceGraphic" in2="effect1_dropShadow_66_34" result="shape"/>
</filter>
<clipPath id="clip0_66_34">
<rect width="235" height="215" fill="white" transform="translate(4 1)"/>
</clipPath>
</defs>
</svg>
